<svg width="100" height="100" viewBox="0 0 100 100" xmlns="http://www.w3.org/2000/svg">
  <defs>
    <pattern id="circuit" x="0" y="0" width="100" height="100" patternUnits="userSpaceOnUse">
      <!-- Circuit lines -->
      <line x1="0" y1="20" x2="100" y2="20" stroke="currentColor" stroke-width="0.5" opacity="0.3"/>
      <line x1="0" y1="40" x2="100" y2="40" stroke="currentColor" stroke-width="0.5" opacity="0.3"/>
      <line x1="0" y1="60" x2="100" y2="60" stroke="currentColor" stroke-width="0.5" opacity="0.3"/>
      <line x1="0" y1="80" x2="100" y2="80" stroke="currentColor" stroke-width="0.5" opacity="0.3"/>
      
      <line x1="20" y1="0" x2="20" y2="100" stroke="currentColor" stroke-width="0.5" opacity="0.3"/>
      <line x1="40" y1="0" x2="40" y2="100" stroke="currentColor" stroke-width="0.5" opacity="0.3"/>
      <line x1="60" y1="0" x2="60" y2="100" stroke="currentColor" stroke-width="0.5" opacity="0.3"/>
      <line x1="80" y1="0" x2="80" y2="100" stroke="currentColor" stroke-width="0.5" opacity="0.3"/>
      
      <!-- Circuit nodes -->
      <circle cx="20" cy="20" r="1" fill="currentColor" opacity="0.4"/>
      <circle cx="40" cy="40" r="1" fill="currentColor" opacity="0.4"/>
      <circle cx="60" cy="60" r="1" fill="currentColor" opacity="0.4"/>
      <circle cx="80" cy="80" r="1" fill="currentColor" opacity="0.4"/>
      
      <!-- Circuit components -->
      <rect x="18" y="58" width="4" height="4" fill="none" stroke="currentColor" stroke-width="0.5" opacity="0.3"/>
      <rect x="78" y="18" width="4" height="4" fill="none" stroke="currentColor" stroke-width="0.5" opacity="0.3"/>
      <rect x="38" y="78" width="4" height="4" fill="none" stroke="currentColor" stroke-width="0.5" opacity="0.3"/>
      <rect x="58" y="38" width="4" height="4" fill="none" stroke="currentColor" stroke-width="0.5" opacity="0.3"/>
    </pattern>
  </defs>
  <rect width="100" height="100" fill="url(#circuit)"/>
</svg>